<svg  height="285"
      width="285"
      xmlns="http://www.w3.org/2000/svg"
      version="1.1">
 <g>
  <title>background</title>
  <rect fill="#ffffff" id="canvas_background" height="287" width="287" y="-1" x="-1"/>
  <g display="none" overflow="visible" y="0" x="0" height="100%" width="100%" id="canvasGrid">
   <rect fill="url(#gridpattern)" stroke-width="0" y="0" x="0" height="100%" width="100%"/>
  </g>
 </g>
 <g>
  <title>Layer 1</title>
  <path stroke="#000000" id="svg_5" d="m116.329796,139.390945c-5.90036,-1.289124 -10.354752,-7.531891 -8.878044,-14.022995c2.089714,-9.1063 10.006454,-15.405563 17.929161,-18.399231c5.277153,-1.880951 11.265953,-1.596649 16.221169,1.199944c0.442108,-34.782036 0.189346,-69.573208 0.256653,-104.359445c1.788879,-0.000515 4.084152,-0.619961 3.597839,2.15977c0.250168,6.246588 3.110794,11.965104 7.507004,15.994582c9.806992,9.805731 20.839493,20.453255 23.092026,35.397934c0.640045,6.304878 -0.045761,12.659157 -1.351089,18.815857c3.865051,7.741669 3.632141,17.121223 2.062759,25.517799c-1.017303,4.433586 -2.677383,8.70462 -4.787628,12.659958c-4.982178,2.488983 0.590897,-4.068146 0.520844,-6.430573c2.694641,-7.096313 3.00412,-15.000725 1.778107,-22.475914c-2.67038,-10.934937 -12.764832,-16.27755 -20.882599,-21.994949c-2.937256,-1.23349 -9.216141,-8.673435 -7.971298,-1.383163c-0.271729,19.761604 -0.224747,39.526237 -0.310577,59.289406c-3.40744,9.162704 -11.224426,16.155548 -20.303612,17.90918c-2.781448,0.515717 -5.694962,0.704544 -8.480713,0.121841l0,0zm56.612282,-74.719635c0.080856,-11.246632 -7.724854,-20.346184 -15.373749,-27.015434c-3.827316,-3.096668 -7.881653,-6.377367 -12.185074,-8.381477c0.264648,6.46711 3.022369,12.768326 6.323044,18.13892c6.220612,8.944302 15.610825,14.926975 20.821716,24.775074c0.624802,-2.445084 0.436096,-5.011253 0.414063,-7.517082z" stroke-width="1.5" fill="#000000"/>
  <line stroke="#000000" stroke-linecap="null" stroke-linejoin="null" id="svg_8" y2="121.833333" x2="277.340606" y1="121.833333" x1="10.333341" stroke-width="1.5" fill="none"/>
  <line stroke="#000000" stroke-linecap="null" stroke-linejoin="null" id="svg_9" y2="91.166667" x2="268.341061" y1="91.166667" x1="18.666665" stroke-width="1.5" fill="none"/>
  <line stroke="#000000" stroke-linecap="null" stroke-linejoin="null" id="svg_10" y2="60.833333" x2="250.331546" y1="60.833333" x1="35.999995" stroke-width="1.5" fill="none"/>
  <line stroke="#000000" stroke-linecap="null" stroke-linejoin="null" id="svg_11" y2="31.167444" x2="223.665573" y1="31.167444" x1="66.665856" stroke-width="1.5" fill="none"/>
  <ellipse fill-opacity="0" stroke="#000000" ry="136.500003" rx="136.999998" id="svg_6" cy="142.499997" cx="143.499998" stroke-width="10" fill="#b2b2b2"/>
  <text style="cursor: move;" font-style="italic" font-weight="bold" stroke="#000000" transform="matrix(3.90879 -0.885578 1.59487 5.03274 -523.367 -467.91)" xml:space="preserve" text-anchor="start" font-family="'Courier New', Courier, monospace" font-size="20" id="svg_7" y="153.846738" x="81.970541" fill="#ffffff">ECDdb</text>
 </g>
</svg>
